<svg xmlns="http://www.w3.org/2000/svg" xmlns:xlink="http://www.w3.org/1999/xlink" width="180.591" height="60.58" viewBox="0 0 180.591 60.58">
  <defs>
    <linearGradient id="linear-gradient" y1="0.5" x2="1" y2="0.5" gradientUnits="objectBoundingBox">
      <stop offset="0" stop-color="#1d9a65"/>
      <stop offset="0.454" stop-color="#17a18e"/>
      <stop offset="1" stop-color="#003e8d"/>
    </linearGradient>
    <linearGradient id="linear-gradient-2" x1="-0.29" y1="0.5" x2="1.231" y2="0.5" xlink:href="#linear-gradient"/>
  </defs>
  <g id="Group_2812" data-name="Group 2812" transform="translate(-318.304 -201.876)">
    <g id="Group_2814" data-name="Group 2814" transform="translate(421.933 201.876)">
      <g id="Group_2813" data-name="Group 2813">
        <g id="Group_2812-2" data-name="Group 2812" transform="translate(0.832 28.373)">
          <path id="Path_5243" data-name="Path 5243" d="M434.469,257.4a7.191,7.191,0,0,1-5.064-2.1l-9.517-9.517H404.161v-8.362h16.227a7.112,7.112,0,0,1,5.06,2.1l8.974,8.974,18.911-20.942a7.155,7.155,0,0,1,10.372-.265l9.465,9.466a5.251,5.251,0,0,0,3.738,1.548h3.384v8.362h-3.384a13.561,13.561,0,0,1-9.651-4l-8.568-8.568-18.911,20.942a7.189,7.189,0,0,1-5.13,2.358Z" transform="translate(-404.161 -225.196)" fill="url(#linear-gradient)"/>
        </g>
        <path id="Path_5244" data-name="Path 5244" d="M462.723,220.106h9.064a18.95,18.95,0,0,0-14.527-17.687,19.025,19.025,0,0,0-10.184.324,19.66,19.66,0,0,0-7.821,4.67c-1.3,1.22-1.883,1.2-3.251.029-.122-.106-.246-.209-.364-.319A19.029,19.029,0,0,0,404.1,225.758a19.9,19.9,0,0,0,4.008,7.633l7.189-5.4c-.112-.141-.224-.28-.336-.419a9.954,9.954,0,0,1-2.1-9.568,10.071,10.071,0,0,1,15.6-5.23c1.752,1.29,3.571,2.492,5.4,3.672a6.309,6.309,0,0,0,7.155.218c2.059-1.264,4.013-2.695,6.029-4.031a10,10,0,0,1,15.689,7.474Z" transform="translate(-403.477 -201.876)" fill="url(#linear-gradient-2)"/>
      </g>
    </g>
    <g id="Group_2821" data-name="Group 2821" transform="translate(318.304 207.638)">
      <g id="Group_2816" data-name="Group 2816" transform="translate(8.255 8.78)">
        <g id="Group_2815" data-name="Group 2815">
          <path id="Path_5245" data-name="Path 5245" d="M325.089,228.4v-4.56h7.2v4.56Z" transform="translate(-325.089 -211.659)" fill="#4f4f4e"/>
          <path id="Path_5246" data-name="Path 5246" d="M330.227,228.4v-4.56h7.2v4.56Z" transform="translate(-323.976 -211.659)" fill="#4f4f4e"/>
          <path id="Path_5247" data-name="Path 5247" d="M335.365,228.4v-4.56h7.2v4.56Z" transform="translate(-322.862 -211.659)" fill="#4f4f4e"/>
          <path id="Path_5248" data-name="Path 5248" d="M340.5,228.4v-4.56h7.2v4.56Z" transform="translate(-321.749 -211.659)" fill="#4f4f4e"/>
          <path id="Path_5249" data-name="Path 5249" d="M345.641,228.4v-4.56h7.2v4.56Z" transform="translate(-320.636 -211.659)" fill="#4f4f4e"/>
          <path id="Path_5250" data-name="Path 5250" d="M350.779,228.4v-4.56h7.2v4.56Z" transform="translate(-319.522 -211.659)" fill="#4f4f4e"/>
          <path id="Path_5251" data-name="Path 5251" d="M355.917,228.4v-4.56h7.2v4.56Z" transform="translate(-318.409 -211.659)" fill="#4f4f4e"/>
          <path id="Path_5252" data-name="Path 5252" d="M364.2,228.4v-4.56H346.531v4.56Z" transform="translate(-320.443 -211.659)" fill="#4f4f4e"/>
          <path id="Path_5253" data-name="Path 5253" d="M345.75,228.4v-4.56h7.2v4.56Z" transform="translate(-320.612 -211.659)" fill="#4f4f4e"/>
          <path id="Path_5254" data-name="Path 5254" d="M350.888,228.4v-4.56h7.2v4.56Z" transform="translate(-319.499 -211.659)" fill="#4f4f4e"/>
          <path id="Path_5255" data-name="Path 5255" d="M356.026,230.219v-4.56h1.729a3.741,3.741,0,0,0,2.68-.855,3.408,3.408,0,0,0,.931-1.938,11.086,11.086,0,0,1,.931-3.154,7.447,7.447,0,0,1,3-3.23,8.378,8.378,0,0,1,4.237-1.045,7.913,7.913,0,0,1,5.378,1.863,7.637,7.637,0,0,1,2.051,2.926,11.358,11.358,0,0,1,.7,2.527,3.184,3.184,0,0,0,1.179,2.166,4.08,4.08,0,0,0,2.6.741h1.521v4.56h-1.254a7.409,7.409,0,0,1-4.789-1.634,7.826,7.826,0,0,1-2.223,2.888,8.153,8.153,0,0,1-12.408-2.547,6.953,6.953,0,0,1-4.313,1.292Zm10.319-5.909a4.585,4.585,0,0,0,1.178,3.572,2.752,2.752,0,0,0,1.976.741q3.23,0,3.23-4.313a5.63,5.63,0,0,0-.664-2.926,2.751,2.751,0,0,0-2.528-1.482,2.7,2.7,0,0,0-2.527,1.482A5.758,5.758,0,0,0,366.345,224.309Z" transform="translate(-318.385 -213.48)" fill="#4f4f4e"/>
          <path id="Path_5256" data-name="Path 5256" d="M377.391,230.567v-4.56h3.23q3,0,3-2.946v-9.233l5.016,1.956v7.506a6.928,6.928,0,0,1-2.166,5.415,8.277,8.277,0,0,1-5.681,1.862Z" transform="translate(-313.756 -213.828)" fill="#4f4f4e"/>
        </g>
      </g>
      <g id="Group_2817" data-name="Group 2817" transform="translate(55.943 0.932)">
        <path id="Path_5257" data-name="Path 5257" d="M364.284,207.651c0-.191.082-.273.273-.273h.49c.191,0,.273.082.273.273v2.018a.958.958,0,0,0,.955,1.09.9.9,0,0,0,.954-.982v-2.127c0-.191.083-.273.273-.273h.492c.191,0,.273.082.273.273v2.127a.9.9,0,0,0,.955.982.958.958,0,0,0,.954-1.09v-2.018c0-.191.082-.273.273-.273h.492c.191,0,.273.082.273.273v1.936a1.951,1.951,0,0,1-1.99,2.155,2.108,2.108,0,0,0-2.946,0,1.95,1.95,0,0,1-1.991-2.155Z" transform="translate(-364.284 -207.378)" fill="#4f4f4e"/>
      </g>
      <g id="Group_2818" data-name="Group 2818" transform="translate(17.782)">
        <path id="Path_5258" data-name="Path 5258" d="M339.344,224.057a3.246,3.246,0,0,1-.335.017,4.218,4.218,0,0,1-1.228-.175,3.6,3.6,0,0,1-1.291-.614,2.97,2.97,0,0,1-.869-1.052,3.216,3.216,0,0,1-.316-1.458v-.263a1.777,1.777,0,0,1,.018-.263,4.96,4.96,0,0,1,.737-1.905,14.726,14.726,0,0,1,1.211-1.571.679.679,0,0,1,.106-.148c.046-.054.088-.1.123-.133l8.8-9.879,3.44,2.985-8.777,9.879h7.459a6.629,6.629,0,0,1,2.773.544,5.844,5.844,0,0,1,3.186,3.476,7.028,7.028,0,0,1,0,4.642,5.886,5.886,0,0,1-1.194,2.018,5.978,5.978,0,0,1-1.993,1.431,6.629,6.629,0,0,1-2.773.544h-15.5v-4.564h15.429a2.483,2.483,0,0,0,.869-.14,1.877,1.877,0,0,0,.633-.377,1.518,1.518,0,0,0,.377-.544,1.723,1.723,0,0,0,.123-.641,1.74,1.74,0,0,0-.131-.658,1.786,1.786,0,0,0-.378-.579,1.844,1.844,0,0,0-.623-.412,2.226,2.226,0,0,0-.869-.158Z" transform="translate(-332.919 -206.612)" fill="#4f4f4e"/>
      </g>
      <g id="Group_2819" data-name="Group 2819" transform="translate(0 20.955)">
        <path id="Path_5259" data-name="Path 5259" d="M321.156,223.835,318.3,228.4h17.9v-4.563Z" transform="translate(-318.304 -223.835)" fill="#4f4f4e"/>
      </g>
      <g id="Group_2820" data-name="Group 2820" transform="translate(0 35.384)">
        <path id="Path_5260" data-name="Path 5260" d="M323.662,244.22l-5.358-8.444h3.586l3.325,5.6,3.386-5.6h3.486l-5.357,8.384v5.557h-3.067Z" transform="translate(-318.304 -235.676)" fill="#4f4f4e"/>
        <path id="Path_5261" data-name="Path 5261" d="M332.822,246.608l-1.274,3.127h-3.127l5.974-14.041h2.829l5.975,14.041h-3.207l-1.274-3.127-1.1-2.708-1.852-4.521-1.852,4.521Z" transform="translate(-316.112 -235.694)" fill="#4f4f4e"/>
        <path id="Path_5262" data-name="Path 5262" d="M342.335,235.776h3.306l3.665,5.895,3.665-5.895h3.306v13.941h-3.047v-9.1l-3.924,5.954h-.08l-3.882-5.895v9.041h-3.008Z" transform="translate(-313.097 -235.676)" fill="#4f4f4e"/>
        <path id="Path_5263" data-name="Path 5263" d="M356.543,235.776h3.307l3.665,5.895,3.665-5.895h3.306v13.941h-3.047v-9.1l-3.924,5.954h-.08l-3.884-5.895v9.041h-3.008Z" transform="translate(-310.018 -235.676)" fill="#4f4f4e"/>
        <path id="Path_5264" data-name="Path 5264" d="M374.172,246.608l-1.275,3.127H369.77l5.975-14.041h2.828l5.975,14.041h-3.206l-1.275-3.127-1.1-2.708-1.853-4.521-1.852,4.521Z" transform="translate(-307.152 -235.694)" fill="#4f4f4e"/>
        <path id="Path_5265" data-name="Path 5265" d="M383.684,235.776h3.067v6.094l5.656-6.094h3.7l-5.677,5.914,5.936,8.026h-3.685l-4.322-5.935-1.613,1.673v4.262h-3.067Z" transform="translate(-304.137 -235.676)" fill="#4f4f4e"/>
      </g>
      <path id="Path_5266" data-name="Path 5266" d="M376.825,232.659a2.672,2.672,0,0,1,.816-1.92,2.566,2.566,0,0,1,1.881-.779,2.723,2.723,0,0,1,2.679,2.7,2.482,2.482,0,0,1-.816,1.862,2.57,2.57,0,0,1-1.863.818,2.693,2.693,0,0,1-1.881-.78A2.608,2.608,0,0,1,376.825,232.659Z" transform="translate(-305.623 -201.553)" fill="#4f4f4e"/>
      <path id="Path_5267" data-name="Path 5267" d="M382.588,232.659a2.667,2.667,0,0,1,.816-1.92,2.541,2.541,0,0,1,1.863-.779,2.692,2.692,0,0,1,1.881.779,2.632,2.632,0,0,1,.816,1.92,2.486,2.486,0,0,1-.816,1.862,2.591,2.591,0,0,1-1.881.818,2.726,2.726,0,0,1-2.679-2.679Z" transform="translate(-304.375 -201.553)" fill="#4f4f4e"/>
    </g>
    <g id="Group_2822" data-name="Group 2822" transform="translate(374.246 206.109)">
      <rect id="Rectangle_8042" data-name="Rectangle 8042" width="6.928" height="1.264" rx="0.272" fill="#4f4f4e"/>
    </g>
  </g>
</svg>
