<?xml version="1.0" encoding="utf-8"?>
<!-- Generator: Adobe Illustrator 27.5.0, SVG Export Plug-In . SVG Version: 6.00 Build 0)  -->
<svg version="1.1" id="Layer_1" xmlns="http://www.w3.org/2000/svg" xmlns:xlink="http://www.w3.org/1999/xlink" x="0px" y="0px"
	 viewBox="0 0 600 87.1" style="enable-background:new 0 0 600 87.1;" xml:space="preserve">
<style type="text/css">
	.st0{fill:url(#SVGID_1_);}
	.st1{fill:url(#SVGID_00000108299374286857251940000014323538890327885461_);}
	.st2{fill:#11192A;}
</style>
<g>
	<g>
		<g>
			<g>
				<linearGradient id="SVGID_1_" gradientUnits="userSpaceOnUse" x1="10.6941" y1="61.2432" x2="105.572" y2="61.2432">
					<stop  offset="0" style="stop-color:#00A979"/>
					<stop  offset="0.4538" style="stop-color:#00AFA0"/>
					<stop  offset="1" style="stop-color:#2B4E9D"/>
				</linearGradient>
				<path class="st0" d="M48.5,81.3c-2.4,0-4.6-0.9-6.3-2.6L30.3,66.8H10.7V56.4h20.2c2.4,0,4.6,0.9,6.3,2.6l11.2,11.2L72,44.1
					c1.6-1.8,4-2.9,6.4-2.9c2.5-0.1,4.8,0.9,6.5,2.6l11.8,11.8c1.2,1.2,2.9,1.9,4.7,1.9h4.2v10.4h-4.2c-4.5,0-8.8-1.8-12-5
					L78.6,52.3L55.1,78.4c-1.6,1.8-4,2.9-6.4,2.9C48.6,81.3,48.5,81.3,48.5,81.3z"/>
			</g>
			
				<linearGradient id="SVGID_00000124861795359662155310000010044527730258677420_" gradientUnits="userSpaceOnUse" x1="-15.0667" y1="25.4522" x2="114.4756" y2="25.4522">
				<stop  offset="0" style="stop-color:#00A979"/>
				<stop  offset="0.4538" style="stop-color:#00AFA0"/>
				<stop  offset="1" style="stop-color:#2B4E9D"/>
			</linearGradient>
			<path style="fill:url(#SVGID_00000124861795359662155310000010044527730258677420_);" d="M83.5,28.5h11.3
				c-0.2-4-1.3-7.8-3.4-11.3C88,11.7,83.1,8,76.7,6.5c-4.3-1-8.5-0.9-12.7,0.4c-3.7,1.1-6.9,3.2-9.7,5.8c-1.6,1.5-2.3,1.5-4.1,0
				c-0.2-0.1-0.3-0.3-0.5-0.4C46.2,9,42,6.9,37.2,6.1c-9.9-1.6-19.7,3-24.5,11.7c-3.1,5.6-3.7,11.5-2.2,17.7c0.9,3.6,2.8,6.7,5,9.5
				l9-6.7c-0.1-0.2-0.3-0.3-0.4-0.5c-2.9-3.5-3.9-7.5-2.6-11.9c2.4-8.3,12.5-11.6,19.4-6.5c2.2,1.6,4.4,3.1,6.7,4.6
				c2.9,1.9,5.9,2.1,8.9,0.3c2.6-1.6,5-3.4,7.5-5c4-2.6,8.2-3.1,12.5-1C80.8,20.3,83.2,23.8,83.5,28.5z"/>
		</g>
	</g>
	<g>
		<path class="st2" d="M137.5,16.9h1.7c0.2,0,0.2-0.1,0.2-0.2v-1.8c0-0.2-0.1-0.2-0.2-0.2h-1.7c-0.2,0-0.2,0.1-0.2,0.2v1.8
			C137.2,16.8,137.3,16.9,137.5,16.9z"/>
		<path class="st2" d="M134.5,16.9h1.7c0.2,0,0.2-0.1,0.2-0.2v-1.8c0-0.2-0.1-0.2-0.2-0.2h-1.7c-0.2,0-0.2,0.1-0.2,0.2v1.8
			C134.2,16.8,134.3,16.9,134.5,16.9z"/>
		<path class="st2" d="M164.7,32.6H163c-0.2,0-0.2,0.1-0.2,0.2v1.8c0,0.2,0.1,0.2,0.2,0.2h1.7c0.2,0,0.2-0.1,0.2-0.2v-1.8
			C164.9,32.6,164.8,32.6,164.7,32.6z"/>
		<path class="st2" d="M172.6,30.4C172.6,30.4,172.6,30.4,172.6,30.4C172.6,30.4,172.6,30.4,172.6,30.4h2.7c0,0,0,0,0,0c0,0,0,0,0,0
			h2.7c0,0,0,0,0,0c0,0,0,0,0,0h2.7c0.1,0,0.1,0,0.2,0c0.1,0,0.1,0,0.2,0h6.8c2.9,0,4.7-1.4,4.7-5.1c0-3.8-1.7-5.4-4.7-5.4
			c-2.7,0-4.7,1.6-4.7,5.4c0,1.3,0.2,2.4,0.7,3.2h-2.8c-0.1,0-0.1,0-0.2,0c-0.1,0-0.1,0-0.2,0h-2.7c0,0,0,0,0,0c0,0,0,0,0,0h-2.7
			c0,0,0,0,0,0c0,0,0,0,0,0h-2.7c0,0,0,0,0,0c0,0,0,0,0,0h-2.7c0,0,0,0,0,0c0,0,0,0,0,0h-2.5h-0.2H167c-1.4,0-2.2-0.6-2.2-1.7v-6.2
			c0-0.2-0.1-0.2-0.2-0.2H163c-0.2,0-0.2,0.1-0.2,0.2v6.6c0,1-0.4,1.3-1.2,1.3H160c0,0-0.1,0-0.1,0c0,0-0.1,0-0.1,0h-2.7
			c0,0,0,0,0,0c0,0,0,0,0,0h-2.7c0,0,0,0,0,0c0,0,0,0,0,0h-2.7c0,0,0,0,0,0c0,0,0,0,0,0H149c0,0,0,0,0,0c0,0,0,0,0,0h-2.7
			c0,0,0,0,0,0c0,0,0,0,0,0h-2.7c0,0,0,0,0,0c0,0,0,0,0,0h-1.1c-0.8,0-1.2-0.3-1.2-1.3v-8.3c0-0.2-0.1-0.2-0.2-0.2h-1.6
			c-0.2,0-0.2,0.1-0.2,0.2v1.1h-2.4c-2.4,0-4.7,1.3-4.7,4.9c0,3.1,1.9,4.5,4.5,4.5c1.1,0,2-0.3,2.7-0.9c0.3,1.4,1.2,2,2.8,2h1.5
			c0,0,0,0,0,0c0,0,0,0,0,0h2.7c0,0,0,0,0,0c0,0,0,0,0,0h2.7c0,0,0,0,0,0c0,0,0,0,0,0h2.7c0,0,0,0,0,0c0,0,0,0,0,0h2.7c0,0,0,0,0,0
			c0,0,0,0,0,0h2.7c0,0,0,0,0,0c0,0,0,0,0,0h2.7c0,0,0.1,0,0.1,0c0,0,0,0,0.1,0h1.9c1.3,0,2.1-0.4,2.6-1.3c0.4,0.9,1.2,1.3,2.3,1.3
			h0.4h0.2h2.5c0,0,0,0,0,0c0,0,0,0,0,0H172.6z M187.9,21.8c1.9,0,2.6,1.3,2.6,3.4c0,2.4-0.8,3.2-2.6,3.2c-1.9,0-2.6-0.9-2.6-3.4
			C185.2,23,186.1,21.8,187.9,21.8z M139.2,24.2c0,2-0.7,3.1-2.6,3.1c-1.6,0-2.5-0.9-2.5-2.6c0-2.3,1-3,2.6-3h2.4V24.2z"/>
		<path class="st2" d="M188.5,17.9h1.7c0.2,0,0.2-0.1,0.2-0.2v-1.8c0-0.2-0.1-0.2-0.2-0.2h-1.7c-0.2,0-0.2,0.1-0.2,0.2v1.8
			C188.2,17.8,188.3,17.9,188.5,17.9z"/>
		<path class="st2" d="M185.5,17.9h1.7c0.2,0,0.2-0.1,0.2-0.2v-1.8c0-0.2-0.1-0.2-0.2-0.2h-1.7c-0.2,0-0.2,0.1-0.2,0.2v1.8
			C185.2,17.8,185.3,17.9,185.5,17.9z"/>
		<path class="st2" d="M197.8,30.1V13.9c0-0.2-0.1-0.2-0.2-0.2H196c-0.2,0-0.2,0.1-0.2,0.2v16.2c0,0.2,0.1,0.2,0.2,0.2h1.6
			C197.7,30.4,197.8,30.3,197.8,30.1z"/>
		<path class="st2" d="M220.4,15.1h0.7c1.8,0,3.1-0.7,3.1-3.1c0-1.6-0.8-2.2-1.8-2.2c-1,0-1.8,0.8-1.8,1.8c0,1,0.7,1.6,1.8,1.6h0.8
			c-0.1,0.4-0.6,1-2,1h-0.7c-0.2,0-0.2,0.1-0.2,0.2v0.3C220.2,15.1,220.3,15.1,220.4,15.1z M222.4,12.5c-0.4,0-1.1-0.2-1.1-0.8
			c0-0.5,0.3-1,1-1c0.6,0,1,0.5,1,1.4c0,0.1,0,0.3,0,0.4H222.4z"/>
		<path class="st2" d="M242,13.6h-1.6c-0.2,0-0.2,0.1-0.2,0.2v13.2c0,1-0.4,1.3-1.2,1.3h-1.5h0h-2.7c0,0,0,0,0,0c0,0,0,0,0,0h-2.7
			c0,0,0,0,0,0c0,0,0,0,0,0h-2.7h0h-0.7c-0.7,0-1.5-0.5-1.5-2.2c0-0.3,0-0.7,0-1.1c0-3.8-1.7-5.4-4.7-5.4c-2.9,0-4.7,1.6-4.7,5.4
			c0,0.4,0,0.7,0,1c0,1.7-0.8,2.2-1.5,2.2H215h0h-2.7c0,0,0,0,0,0c0,0,0,0,0,0h-2.7c0,0,0,0,0,0c0,0,0,0,0,0h-2.7c0,0,0,0,0,0
			c0,0,0,0,0,0h-0.3c-1.4,0-2.2-0.6-2.2-1.7v-6.2c0-0.2-0.1-0.2-0.2-0.2h-1.6c-0.2,0-0.2,0.1-0.2,0.2v10.7c0,1.4-0.7,2.1-2,2.1h-0.6
			c-0.2,0-0.2,0.1-0.2,0.2V35c0,0.2,0.1,0.2,0.2,0.2h0.7c2.6,0,4-1.4,4-4.1v-1.6c0.5,0.5,1.1,0.8,2,0.8h0.5c0,0,0,0,0,0c0,0,0,0,0,0
			h2.7c0,0,0,0,0,0c0,0,0,0,0,0h2.7c0,0,0,0,0,0c0,0,0,0,0,0h2.7h0h1.1c0.9,0,2.1-0.1,2.8-1.2c0.8,1,2,1.4,3.5,1.4
			c1.5,0,2.7-0.4,3.5-1.4c0.7,1.1,1.9,1.2,2.8,1.2h0.5h0h2.7c0,0,0,0,0,0c0,0,0,0,0,0h2.7c0,0,0,0,0,0c0,0,0,0,0,0h2.7h0h1.9
			c2.1,0,2.9-0.9,2.9-3.1V13.9C242.3,13.7,242.2,13.6,242,13.6z M222.5,28.6c-1.9,0-2.6-1-2.6-3.4c0-2.2,0.8-3.4,2.6-3.4
			s2.6,1.3,2.6,3.4C225.1,27.6,224.3,28.6,222.5,28.6z"/>
		<path class="st2" d="M246,30.4h1.6c0.2,0,0.2-0.1,0.2-0.2V13.9c0-0.2-0.1-0.2-0.2-0.2H246c-0.2,0-0.2,0.1-0.2,0.2v16.2
			C245.7,30.3,245.8,30.4,246,30.4z"/>
		<path class="st2" d="M262.7,16.9h1.7c0.2,0,0.2-0.1,0.2-0.2v-1.8c0-0.2-0.1-0.2-0.2-0.2h-1.7c-0.2,0-0.2,0.1-0.2,0.2v1.8
			C262.4,16.8,262.5,16.9,262.7,16.9z"/>
		<path class="st2" d="M259.7,16.9h1.7c0.2,0,0.2-0.1,0.2-0.2v-1.8c0-0.2-0.1-0.2-0.2-0.2h-1.7c-0.2,0-0.2,0.1-0.2,0.2v1.8
			C259.4,16.8,259.5,16.9,259.7,16.9z"/>
		<path class="st2" d="M286.2,32.9v1.8c0,0.2,0.1,0.2,0.2,0.2h1.7c0.2,0,0.2-0.1,0.2-0.2v-1.8c0-0.2-0.1-0.2-0.2-0.2h-1.7
			C286.2,32.6,286.2,32.7,286.2,32.9z"/>
		<path class="st2" d="M287.3,27.3v-6.7c0-0.2-0.1-0.2-0.2-0.2h-1.6c-0.2,0-0.2,0.1-0.2,0.2v6.6c0,1-0.4,1.3-1.2,1.3h-1.7h0h-2.7
			c0,0,0,0,0,0c0,0,0,0,0,0h-2.7c0,0,0,0,0,0c0,0,0,0,0,0h-2.7c0,0,0,0,0,0c0,0,0,0,0,0h-2.7c0,0,0,0,0,0c0,0,0,0,0,0h-2.7
			c0,0,0,0,0,0c0,0,0,0,0,0h-1.1c-0.8,0-1.2-0.3-1.2-1.3v-8.3c0-0.2-0.1-0.2-0.2-0.2h-1.6c-0.2,0-0.2,0.1-0.2,0.2v1.1H262
			c-2.4,0-4.7,1.3-4.7,4.9c0,3.1,1.9,4.5,4.5,4.5c1.1,0,2-0.3,2.7-0.9c0.3,1.4,1.2,2,2.8,2h1.5c0,0,0,0,0,0c0,0,0,0,0,0h2.7
			c0,0,0,0,0,0c0,0,0,0,0,0h2.7c0,0,0,0,0,0c0,0,0,0,0,0h2.7c0,0,0,0,0,0c0,0,0,0,0,0h2.7c0,0,0,0,0,0c0,0,0,0,0,0h2.7h0h2.1
			C286.5,30.4,287.3,29.4,287.3,27.3z M264.4,24.2c0,2-0.7,3.1-2.6,3.1c-1.6,0-2.5-0.9-2.5-2.6c0-2.3,1-3,2.6-3h2.4V24.2z"/>
		<path class="st2" d="M285.3,34.7v-1.8c0-0.2-0.1-0.2-0.2-0.2h-1.7c-0.2,0-0.2,0.1-0.2,0.2v1.8c0,0.2,0.1,0.2,0.2,0.2h1.7
			C285.3,34.9,285.3,34.9,285.3,34.7z"/>
		<path class="st2" d="M295.2,30.4h2.6V31c0,1.8-1,2.3-2.3,2.3h-2.9c-0.2,0-0.2,0.1-0.2,0.2V35c0,0.2,0.1,0.2,0.2,0.2h3
			c2.6,0,4.3-1.3,4.3-4.3v-5.7c0-3.8-1.7-5.4-4.6-5.4c-2.6,0-4.7,1.7-4.7,5.5C290.5,29.1,292.3,30.4,295.2,30.4z M295.2,21.8
			c1.9,0,2.6,1.3,2.6,3.4v3.2h-2.5c-1.8,0-2.8-0.7-2.8-3.1C292.5,23.2,293.5,21.8,295.2,21.8z"/>
		<path class="st2" d="M312.1,26.2v-1.9c0-3-1.7-4.4-4.2-4.4h-3.6c-0.2,0-0.2,0.1-0.2,0.2v1.4c0,0.2,0.1,0.2,0.2,0.2h2.9
			c1.9,0,2.8,0.8,2.8,2.5v2c0,1.7-0.3,2.2-2.1,2.2h-4.7c-0.2,0-0.2,0.1-0.2,0.2v1.4c0,0.2,0.1,0.2,0.2,0.2h5.5
			C311,30.4,312.1,29.4,312.1,26.2z"/>
		<path class="st2" d="M318,15.5h5c0.1,0,0.1,0,0.1-0.2v-0.7c0-0.1,0-0.2-0.1-0.2h-2.5c-0.4-0.3-0.8-0.8-0.8-1.5
			c0-0.8,0.4-1.4,1.4-1.4c0.5,0,0.9,0.2,1.2,0.6c0.1,0.1,0.1,0,0.3,0l0.5-0.4c0,0,0-0.1,0-0.2c-0.4-0.6-1-0.9-1.9-0.9
			c-1.9,0-2.5,1.4-2.5,2.4c0,0.6,0.2,1.2,0.4,1.5H318c-0.1,0-0.1,0-0.1,0.2v0.7C317.9,15.4,317.9,15.5,318,15.5z"/>
		<path class="st2" d="M340.1,13.6h-1.6c-0.2,0-0.2,0.1-0.2,0.2v13.2c0,1-0.4,1.3-1.2,1.3h-1.5h0h-2.7c0,0,0,0,0,0c0,0,0,0,0,0h-2.7
			c0,0,0,0,0,0c0,0,0,0,0,0h-0.3c-1.2,0-2-0.4-2.2-1.4V13.9c0-0.2-0.1-0.2-0.2-0.2h-1.6c-0.2,0-0.2,0.1-0.2,0.2v13.2
			c0,1-0.4,1.3-1.2,1.3h-2.9V17.4c0-0.2-0.1-0.2-0.2-0.2h-1.6c-0.2,0-0.2,0.1-0.2,0.2v11.1h-4.8c-0.2,0-0.2,0.1-0.2,0.2v1.4
			c0,0.2,0.1,0.2,0.2,0.2h10.1c1.3,0,2.2-0.4,2.5-1.3c0.5,0.9,1.3,1.3,2.3,1.3h0.5c0,0,0,0,0,0c0,0,0,0,0,0h2.7c0,0,0,0,0,0
			c0,0,0,0,0,0h2.7h0h1.9c2.1,0,2.9-0.9,2.9-3.1V13.9C340.4,13.7,340.3,13.6,340.1,13.6z"/>
		<path class="st2" d="M351.3,16.9h1.7c0.2,0,0.2-0.1,0.2-0.2v-1.8c0-0.2-0.1-0.2-0.2-0.2h-1.7c-0.2,0-0.2,0.1-0.2,0.2v1.8
			C351,16.8,351.1,16.9,351.3,16.9z"/>
		<path class="st2" d="M354.3,16.9h1.7c0.2,0,0.2-0.1,0.2-0.2v-1.8c0-0.2-0.1-0.2-0.2-0.2h-1.7c-0.2,0-0.2,0.1-0.2,0.2v1.8
			C354,16.8,354.1,16.9,354.3,16.9z"/>
		<path class="st2" d="M377.1,32.6h-1.7c-0.2,0-0.2,0.1-0.2,0.2v1.8c0,0.2,0.1,0.2,0.2,0.2h1.7c0.2,0,0.2-0.1,0.2-0.2v-1.8
			C377.3,32.7,377.2,32.6,377.1,32.6z"/>
		<path class="st2" d="M380.1,34.9c0.2,0,0.2-0.1,0.2-0.2v-1.8c0-0.2-0.1-0.2-0.2-0.2h-1.7c-0.2,0-0.2,0.1-0.2,0.2v1.8
			c0,0.2,0.1,0.2,0.2,0.2H380.1z"/>
		<path class="st2" d="M395.6,17.9h1.7c0.2,0,0.2-0.1,0.2-0.2v-1.8c0-0.2-0.1-0.2-0.2-0.2h-1.7c-0.2,0-0.2,0.1-0.2,0.2v1.8
			C395.3,17.8,395.4,17.9,395.6,17.9z"/>
		<path class="st2" d="M415,30.4h8.3c2.7,0,3.7-1.2,3.7-4.7c0-3.1-1.3-5.8-5.9-5.8c-2.1,0-4.1,0.7-5.7,1.5v-7.5
			c0-0.2-0.1-0.2-0.2-0.2h-1.6c-0.2,0-0.2,0.1-0.2,0.2v13.2c0,1-0.4,1.3-1.2,1.3h-1.5h0h-2.7c0,0,0,0,0,0c0,0,0,0,0,0h-2.7
			c0,0,0,0,0,0c0,0,0,0,0,0h-2.7c0,0,0,0,0,0c0,0,0,0,0,0h-2.5h-0.2h-0.1c-1.4,0-2.2-0.6-2.2-1.7v-6.2c0-0.2-0.1-0.2-0.2-0.2h-1.6
			c-0.2,0-0.2,0.1-0.2,0.2v6.6c0,1-0.4,1.3-1.2,1.3h-1.5c0,0-0.1,0-0.1,0c0,0-0.1,0-0.1,0h-2.7c0,0,0,0,0,0c0,0,0,0,0,0H387
			c0,0,0,0,0,0c0,0,0,0,0,0h-2.7c0,0,0,0,0,0c0,0,0,0,0,0h-2.7c0,0,0,0,0,0c0,0,0,0,0,0h-0.3c-1.4,0-2.2-0.6-2.2-1.7v-6.2
			c0-0.2-0.1-0.2-0.2-0.2h-1.6c-0.2,0-0.2,0.1-0.2,0.2v6.6c0,1-0.4,1.3-1.2,1.3h-1.7c0,0-0.1,0-0.1,0c0,0-0.1,0-0.1,0h-2.7
			c0,0,0,0,0,0c0,0,0,0,0,0h-2.7c0,0,0,0,0,0c0,0,0,0,0,0h-2.7c0,0,0,0,0,0c0,0,0,0,0,0h-2.7c0,0,0,0,0,0c0,0,0,0,0,0h-2.7
			c0,0,0,0,0,0c0,0,0,0,0,0h-1.1c-0.8,0-1.2-0.3-1.2-1.3v-8.3c0-0.2-0.1-0.2-0.2-0.2h-1.6c-0.2,0-0.2,0.1-0.2,0.2v1.1h-2.4
			c-2.4,0-4.7,1.3-4.7,4.9c0,3.1,1.9,4.5,4.5,4.5c1.1,0,2-0.3,2.7-0.9c0.3,1.4,1.2,2,2.8,2h1.5c0,0,0,0,0,0c0,0,0,0,0,0h2.7
			c0,0,0,0,0,0c0,0,0,0,0,0h2.7c0,0,0,0,0,0c0,0,0,0,0,0h2.7c0,0,0,0,0,0c0,0,0,0,0,0h2.7c0,0,0,0,0,0c0,0,0,0,0,0h2.7
			c0,0,0.1,0,0.1,0c0,0,0,0,0.1,0h2c1.3,0,2.1-0.4,2.6-1.3c0.4,0.9,1.2,1.3,2.3,1.3h0.5c0,0,0,0,0,0c0,0,0,0,0,0h2.7c0,0,0,0,0,0
			c0,0,0,0,0,0h2.7c0,0,0,0,0,0c0,0,0,0,0,0h2.7c0,0,0,0,0,0c0,0,0,0,0,0h2.7c0,0,0.1,0,0.1,0c0,0,0,0,0.1,0h1.9
			c1.3,0,2.1-0.4,2.6-1.3c0.4,0.9,1.2,1.3,2.3,1.3h0.4h0.2h2.5c0,0,0,0,0,0c0,0,0,0,0,0h2.7c0,0,0,0,0,0c0,0,0,0,0,0h2.7
			c0,0,0,0,0,0c0,0,0,0,0,0h2.7h0h1.9c0.7,0,1.2-0.1,1.6-0.3C414.4,30.3,414.6,30.4,415,30.4z M415.4,27.3v-4
			c1.4-0.7,3.6-1.5,5.6-1.5c2.9,0,3.8,1.4,3.8,3.8c0,2.3-0.4,2.8-2.2,2.8h-7.3C415.4,28,415.4,27.6,415.4,27.3z M356,24.2
			c0,2-0.7,3.1-2.6,3.1c-1.6,0-2.5-0.9-2.5-2.6c0-2.3,1-3,2.6-3h2.4V24.2z"/>
		<path class="st2" d="M456.5,27.3V13.9c0-0.2-0.1-0.2-0.2-0.2h-1.6c-0.2,0-0.2,0.1-0.2,0.2v13.2c0,1-0.4,1.3-1.2,1.3h-1.5h0H449
			c0,0,0,0,0,0c0,0,0,0,0,0h-2.7c0,0,0,0,0,0c0,0,0,0,0,0h-2.7c0,0,0,0,0,0c0,0,0,0,0,0h-2.7c0,0,0,0,0,0c0,0,0,0,0,0h-1.7v-3.2
			c0-3.8-1.7-5.4-4.6-5.4c-2.6,0-4.7,1.7-4.7,5.5c0,3.7,1.8,5,4.7,5h2.6V31c0,1.8-1,2.3-2.3,2.3h-2.9c-0.2,0-0.2,0.1-0.2,0.2V35
			c0,0.2,0.1,0.2,0.2,0.2h3c2.6,0,4.3-1.3,4.3-4.3v-0.6h1.7c0,0,0,0,0,0c0,0,0,0,0,0h2.7c0,0,0,0,0,0c0,0,0,0,0,0h2.7c0,0,0,0,0,0
			c0,0,0,0,0,0h2.7c0,0,0,0,0,0c0,0,0,0,0,0h2.7h0h1.9C455.7,30.4,456.5,29.4,456.5,27.3z M437,28.4h-2.5c-1.8,0-2.8-0.7-2.8-3.1
			c0-2.2,1-3.6,2.7-3.6c1.9,0,2.6,1.3,2.6,3.4V28.4z"/>
		<path class="st2" d="M461.7,13.6h-1.6c-0.2,0-0.2,0.1-0.2,0.2v16.2c0,0.2,0.1,0.2,0.2,0.2h1.6c0.2,0,0.2-0.1,0.2-0.2V13.9
			C462,13.7,461.9,13.6,461.7,13.6z"/>
		<path class="st2" d="M475.9,16.9h1.7c0.2,0,0.2-0.1,0.2-0.2v-1.8c0-0.2-0.1-0.2-0.2-0.2h-1.7c-0.2,0-0.2,0.1-0.2,0.2v1.8
			C475.7,16.8,475.7,16.9,475.9,16.9z"/>
		<path class="st2" d="M472.9,16.9h1.7c0.2,0,0.2-0.1,0.2-0.2v-1.8c0-0.2-0.1-0.2-0.2-0.2h-1.7c-0.2,0-0.2,0.1-0.2,0.2v1.8
			C472.7,16.8,472.7,16.9,472.9,16.9z"/>
		<path class="st2" d="M503.6,15.1c0.6,0,1-0.2,1.3-0.5c0.3,0.4,0.8,0.5,1.3,0.5c1.1,0,1.8-0.8,1.8-1.9v-1.7c0-0.2-0.1-0.2-0.2-0.2
			h-0.4c-0.2,0-0.2,0.1-0.2,0.2v1.8c0,0.6-0.3,1-0.9,1c-0.5,0-0.9-0.3-0.9-0.9v-1.9c0-0.2-0.1-0.2-0.2-0.2h-0.4
			c-0.2,0-0.2,0.1-0.2,0.2v1.9c0,0.6-0.3,0.9-0.9,0.9s-0.9-0.4-0.9-1v-1.8c0-0.2-0.1-0.2-0.2-0.2h-0.4c-0.2,0-0.2,0.1-0.2,0.2v1.7
			C501.8,14.3,502.5,15.1,503.6,15.1z"/>
		<path class="st2" d="M531.1,17.9h1.7c0.2,0,0.2-0.1,0.2-0.2v-1.8c0-0.2-0.1-0.2-0.2-0.2h-1.7c-0.2,0-0.2,0.1-0.2,0.2v1.8
			C530.9,17.8,531,17.9,531.1,17.9z"/>
		<path class="st2" d="M571.4,30.4C571.4,30.4,571.4,30.4,571.4,30.4C571.4,30.4,571.4,30.4,571.4,30.4h2.7h0h1.9
			c2.1,0,2.9-0.9,2.9-3.1V13.9c0-0.2-0.1-0.2-0.2-0.2h-1.6c-0.2,0-0.2,0.1-0.2,0.2v13.2c0,1-0.4,1.3-1.2,1.3h-1.5h0h-2.7
			c0,0,0,0,0,0c0,0,0,0,0,0h-2.7c0,0,0,0,0,0c0,0,0,0,0,0h-2.7c0,0,0,0,0,0c0,0,0,0,0,0h-2.7c0,0,0,0,0,0c0,0,0,0,0,0h-2.7h0h-0.7
			c-0.7,0-1.5-0.5-1.5-2.2c0-0.3,0-0.7,0-1.1c0-3.8-1.7-5.4-4.7-5.4c-2.9,0-4.7,1.6-4.7,5.4c0,0.4,0,0.7,0,1c0,1.7-0.8,2.2-1.5,2.2
			h-1.2h0h-2.7c0,0,0,0,0,0c0,0,0,0,0,0h-2.7c0,0,0,0,0,0c0,0,0,0,0,0H538c0,0,0,0,0,0c0,0,0,0,0,0h-2.5h-0.2h-0.1
			c-1.4,0-2.2-0.6-2.2-1.7v-6.2c0-0.2-0.1-0.2-0.2-0.2h-1.6c-0.2,0-0.2,0.1-0.2,0.2v6.6c0,1-0.4,1.3-1.2,1.3h-1.5c0,0-0.1,0-0.1,0
			c0,0-0.1,0-0.1,0h-2.7c0,0,0,0,0,0c0,0,0,0,0,0h-2.7c0,0,0,0,0,0c0,0,0,0,0,0h-2.7c0,0,0,0,0,0c0,0,0,0,0,0h-2.7c0,0,0,0,0,0
			c0,0,0,0,0,0h-2.7c0,0,0,0,0,0c0,0,0,0,0,0h-0.3c-1.4,0-2.2-0.6-2.2-1.7c0-0.3,0-0.7,0-1.1c0-3.1-1.3-5.8-5.9-5.8
			c-2.1,0-4.1,0.7-5.7,1.5v-0.8c0-0.2-0.1-0.2-0.2-0.2h-1.6c-0.2,0-0.2,0.1-0.2,0.2v6.6c0,1-0.4,1.3-1.2,1.3h-1.5h0h-2.7
			c0,0,0,0,0,0c0,0,0,0,0,0h-2.7c0,0,0,0,0,0c0,0,0,0,0,0h-2.7c0,0,0,0,0,0c0,0,0,0,0,0h-2.7c0,0,0,0,0,0c0,0,0,0,0,0h-2.7
			c0,0,0,0,0,0c0,0,0,0,0,0h-1.1c-0.8,0-1.2-0.3-1.2-1.3v-8.3c0-0.2-0.1-0.2-0.2-0.2h-1.6c-0.2,0-0.2,0.1-0.2,0.2v1.1h-2.4
			c-2.4,0-4.7,1.3-4.7,4.9c0,3.1,1.9,4.5,4.5,4.5c1.1,0,2-0.3,2.7-0.9c0.3,1.4,1.2,2,2.8,2h1.5c0,0,0,0,0,0c0,0,0,0,0,0h2.7
			c0,0,0,0,0,0c0,0,0,0,0,0h2.7c0,0,0,0,0,0c0,0,0,0,0,0h2.7c0,0,0,0,0,0c0,0,0,0,0,0h2.7c0,0,0,0,0,0c0,0,0,0,0,0h2.7h0h1.9
			c0.7,0,1.2-0.1,1.6-0.3c0.2,0.2,0.4,0.3,0.8,0.3h8.3c1.6,0,2.6-0.4,3.2-1.5c0.4,1,1.3,1.5,2.5,1.5h0.5c0,0,0,0,0,0c0,0,0,0,0,0
			h2.7c0,0,0,0,0,0c0,0,0,0,0,0h2.7c0,0,0,0,0,0c0,0,0,0,0,0h2.7c0,0,0,0,0,0c0,0,0,0,0,0h2.7c0,0,0,0,0,0c0,0,0,0,0,0h2.7
			c0,0,0.1,0,0.1,0c0,0,0,0,0.1,0h1.9c1.3,0,2.1-0.4,2.6-1.3c0.4,0.9,1.2,1.3,2.3,1.3h0.4h0.2h2.5c0,0,0,0,0,0c0,0,0,0,0,0h2.7
			c0,0,0,0,0,0c0,0,0,0,0,0h2.7c0,0,0,0,0,0c0,0,0,0,0,0h2.7h0h1.1c0.9,0,2.1-0.1,2.8-1.2c0.8,1,2,1.4,3.5,1.4
			c1.5,0,2.7-0.4,3.5-1.4c0.7,1.1,1.9,1.2,2.8,1.2h0.5h0h2.7c0,0,0,0,0,0c0,0,0,0,0,0h2.7c0,0,0,0,0,0c0,0,0,0,0,0h2.7c0,0,0,0,0,0
			c0,0,0,0,0,0H571.4z M477.6,24.2c0,2-0.7,3.1-2.6,3.1c-1.6,0-2.5-0.9-2.5-2.6c0-2.3,1-3,2.6-3h2.4V24.2z M507.5,28.4h-7.3
			c0.1-0.4,0.1-0.8,0.1-1.2v-4c1.4-0.7,3.6-1.5,5.6-1.5c2.9,0,3.8,1.4,3.8,3.8C509.7,27.9,509.4,28.4,507.5,28.4z M553.6,28.6
			c-1.9,0-2.6-1-2.6-3.4c0-2.2,0.8-3.4,2.6-3.4c1.9,0,2.6,1.3,2.6,3.4C556.2,27.6,555.5,28.6,553.6,28.6z"/>
		<path class="st2" d="M582.6,30.4h1.6c0.2,0,0.2-0.1,0.2-0.2V13.9c0-0.2-0.1-0.2-0.2-0.2h-1.6c-0.2,0-0.2,0.1-0.2,0.2v16.2
			C582.3,30.3,582.4,30.4,582.6,30.4z"/>
		<polygon class="st2" points="130.3,45.9 134.7,45.9 134.7,59.8 137.2,59.8 137.2,45.9 141.6,45.9 141.6,43.7 130.3,43.7 		"/>
		<path class="st2" d="M148.5,48.2c-1.1,0-2.2,0.4-3,1.3v-5.8h-2.3v16.1h2.3v-7c0-1.7,1-2.5,2.3-2.5c1.3,0,2.3,0.8,2.3,2.5v7h2.3
			v-7.4C152.5,49.9,151.1,48.2,148.5,48.2z"/>
		<path class="st2" d="M159.4,48.2c-2.9,0-4.9,2.2-4.9,5.9c0,4.4,2.3,5.9,5.2,5.9c2,0,3.1-0.6,4.3-1.8l-1.5-1.4
			c-0.8,0.8-1.5,1.2-2.8,1.2c-1.9,0-2.9-1.2-2.9-3.2h7.4v-1C164.3,50.5,162.5,48.2,159.4,48.2z M156.8,53.1c0-0.7,0.1-1,0.3-1.6
			c0.4-0.9,1.2-1.4,2.3-1.4c1.1,0,1.9,0.6,2.3,1.4c0.2,0.5,0.3,0.9,0.3,1.6H156.8z"/>
		<polygon class="st2" points="180.9,55 173.5,43.7 171.2,43.7 171.2,59.8 173.7,59.8 173.7,48.5 181.1,59.8 183.4,59.8 183.4,43.7 
			180.9,43.7 		"/>
		<path class="st2" d="M190.1,48.2c-1.9,0-3,0.4-4.1,1.7l1.5,1.4c0.6-0.8,1.2-1.1,2.5-1.1c1.8,0,2.5,0.7,2.5,2.2v0.8h-3
			c-2.6,0-4,1.4-4,3.3c0,1,0.3,1.9,0.9,2.5c0.7,0.7,1.7,1,3.1,1c1.4,0,2.2-0.3,3.1-1.2v1h2.3v-7.7C194.9,49.5,193.3,48.2,190.1,48.2
			z M192.5,55.7c0,0.8-0.2,1.4-0.5,1.7c-0.6,0.6-1.3,0.7-2.2,0.7c-1.4,0-2.1-0.6-2.1-1.6c0-1,0.7-1.7,2.1-1.7h2.7V55.7z"/>
		<path class="st2" d="M200.1,45.1h-2.3v3.5h-1.3v1.8h1.3v6.3c0,1.7,1,3.2,3.1,3.2h1.4v-2h-1c-0.9,0-1.3-0.5-1.3-1.3v-6.2h2.2v-1.8
			h-2.2V45.1z"/>
		<rect x="204.3" y="48.3" class="st2" width="2.3" height="11.5"/>
		<rect x="204.3" y="43.6" class="st2" width="2.4" height="2.4"/>
		<path class="st2" d="M213.6,48.2c-1.6,0-2.7,0.6-3.4,1.4c-1.1,1.1-1.4,2.6-1.4,4.5c0,1.9,0.3,3.4,1.4,4.5c0.7,0.8,1.9,1.4,3.4,1.4
			c1.6,0,2.7-0.6,3.4-1.4c1.1-1.1,1.4-2.6,1.4-4.5c0-1.9-0.3-3.4-1.4-4.5C216.3,48.8,215.2,48.2,213.6,48.2z M215.3,57.2
			c-0.4,0.4-1,0.7-1.7,0.7c-0.7,0-1.2-0.2-1.7-0.7c-0.7-0.7-0.8-1.9-0.8-3.1c0-1.2,0.1-2.4,0.8-3.1c0.4-0.4,1-0.7,1.7-0.7
			c0.7,0,1.3,0.2,1.7,0.7c0.7,0.7,0.8,1.9,0.8,3.1C216.1,55.3,216,56.5,215.3,57.2z"/>
		<path class="st2" d="M226,48.2c-1.2,0-2.3,0.4-3.1,1.3v-1.2h-2.3v11.5h2.3v-7c0-1.8,1.1-2.6,2.4-2.6c1.3,0,2.3,0.8,2.3,2.6v7h2.3
			v-7.3c0-1.3-0.3-2.4-1.2-3.2C228.1,48.6,227.2,48.2,226,48.2z"/>
		<path class="st2" d="M236.3,48.2c-1.9,0-3,0.4-4.1,1.7l1.5,1.4c0.6-0.8,1.2-1.1,2.5-1.1c1.8,0,2.5,0.7,2.5,2.2v0.8h-3
			c-2.6,0-4,1.4-4,3.3c0,1,0.3,1.9,0.9,2.5c0.7,0.7,1.7,1,3.1,1c1.4,0,2.2-0.3,3.1-1.2v1h2.3v-7.7C241.1,49.5,239.5,48.2,236.3,48.2
			z M238.8,55.7c0,0.8-0.2,1.4-0.5,1.7c-0.6,0.6-1.3,0.7-2.2,0.7c-1.4,0-2.1-0.6-2.1-1.6c0-1,0.7-1.7,2.1-1.7h2.7V55.7z"/>
		<path class="st2" d="M246,56.5V43.7h-2.3v12.9c0,1.7,1,3.2,3.1,3.2h1.4v-2h-1C246.3,57.9,246,57.4,246,56.5z"/>
		<path class="st2" d="M260.8,43.7h-6.1v16.1h2.4v-6.3h3.7c3.1,0,5.2-2.1,5.2-4.9C265.9,45.8,263.9,43.7,260.8,43.7z M260.6,51.3
			h-3.5v-5.4h3.5c1.7,0,2.9,1,2.9,2.7C263.5,50.3,262.3,51.3,260.6,51.3z"/>
		<path class="st2" d="M270,56.5V43.7h-2.3v12.9c0,1.7,1,3.2,3.1,3.2h1.4v-2h-1C270.3,57.9,270,57.4,270,56.5z"/>
		<path class="st2" d="M277.6,48.2c-1.9,0-3,0.4-4.1,1.7l1.5,1.4c0.6-0.8,1.2-1.1,2.5-1.1c1.8,0,2.5,0.7,2.5,2.2v0.8h-3
			c-2.6,0-4,1.4-4,3.3c0,1,0.3,1.9,0.9,2.5c0.7,0.7,1.7,1,3.1,1c1.4,0,2.2-0.3,3.1-1.2v1h2.3v-7.7C282.3,49.5,280.7,48.2,277.6,48.2
			z M280,55.7c0,0.8-0.2,1.4-0.5,1.7c-0.6,0.6-1.3,0.7-2.2,0.7c-1.4,0-2.1-0.6-2.1-1.6c0-1,0.7-1.7,2.1-1.7h2.7V55.7z"/>
		<path class="st2" d="M287.5,45.1h-2.3v3.5h-1.3v1.8h1.3v6.3c0,1.7,1,3.2,3.1,3.2h1.4v-2h-1c-0.9,0-1.3-0.5-1.3-1.3v-6.2h2.2v-1.8
			h-2.2V45.1z"/>
		<path class="st2" d="M292.1,46.8v1.8h-1.3v1.8h1.3v9.5h2.3v-9.5h2.3v-1.8h-2.3v-1.7c0-0.8,0.4-1.3,1.3-1.3h1v-2h-1.4
			C293.1,43.6,292.1,45.1,292.1,46.8z"/>
		<path class="st2" d="M302.2,48.2c-1.6,0-2.7,0.6-3.4,1.4c-1.1,1.1-1.4,2.6-1.4,4.5c0,1.9,0.3,3.4,1.4,4.5c0.7,0.8,1.9,1.4,3.4,1.4
			c1.6,0,2.7-0.6,3.4-1.4c1.1-1.1,1.4-2.6,1.4-4.5c0-1.9-0.3-3.4-1.4-4.5C304.9,48.8,303.7,48.2,302.2,48.2z M303.9,57.2
			c-0.4,0.4-1,0.7-1.7,0.7c-0.7,0-1.2-0.2-1.7-0.7c-0.7-0.7-0.8-1.9-0.8-3.1c0-1.2,0.1-2.4,0.8-3.1c0.4-0.4,1-0.7,1.7-0.7
			c0.7,0,1.3,0.2,1.7,0.7c0.7,0.7,0.8,1.9,0.8,3.1C304.7,55.3,304.6,56.5,303.9,57.2z"/>
		<path class="st2" d="M311.4,49.6v-1.2h-2.3v11.5h2.3v-7c0-1.6,1-2.6,2.3-2.6c0.8,0,1.2,0.2,1.7,0.8l1.7-1.7
			c-0.8-0.8-1.6-1.1-2.7-1.1C313.2,48.2,312,48.8,311.4,49.6z"/>
		<path class="st2" d="M330.4,48.2c-1.5,0-2.7,0.5-3.6,1.7c-0.7-1.1-1.8-1.7-3.3-1.7c-1.2,0-2.3,0.5-3.1,1.3v-1.2h-2.3v11.5h2.3v-7
			c0-1.8,1.1-2.6,2.4-2.6c1.3,0,2.3,0.8,2.3,2.6v7h2.3v-7.1c0-1.7,1.1-2.4,2.4-2.4c1.3,0,2.3,0.8,2.3,2.6v7h2.3v-7.3
			c0-1.3-0.3-2.4-1.2-3.2C332.6,48.6,331.6,48.2,330.4,48.2z"/>
		<polygon class="st2" points="342,59.8 344.4,59.8 344.4,53 351.1,53 351.1,50.8 344.4,50.8 344.4,45.9 352.3,45.9 352.3,43.7 
			342,43.7 		"/>
		<path class="st2" d="M357.5,48.2c-1.6,0-2.7,0.6-3.4,1.4c-1.1,1.1-1.4,2.6-1.4,4.5c0,1.9,0.3,3.4,1.4,4.5c0.7,0.8,1.9,1.4,3.4,1.4
			c1.6,0,2.7-0.6,3.4-1.4c1.1-1.1,1.4-2.6,1.4-4.5c0-1.9-0.3-3.4-1.4-4.5C360.2,48.8,359.1,48.2,357.5,48.2z M359.2,57.2
			c-0.4,0.4-1,0.7-1.7,0.7c-0.7,0-1.2-0.2-1.7-0.7c-0.7-0.7-0.8-1.9-0.8-3.1c0-1.2,0.1-2.4,0.8-3.1c0.4-0.4,1-0.7,1.7-0.7
			c0.7,0,1.3,0.2,1.7,0.7c0.7,0.7,0.8,1.9,0.8,3.1C360,55.3,359.9,56.5,359.2,57.2z"/>
		<path class="st2" d="M366.8,49.6v-1.2h-2.3v11.5h2.3v-7c0-1.6,1-2.6,2.3-2.6c0.8,0,1.2,0.2,1.7,0.8l1.7-1.7
			c-0.8-0.8-1.6-1.1-2.7-1.1C368.6,48.2,367.4,48.8,366.8,49.6z"/>
		<path class="st2" d="M383.6,45.8c1.8,0,2.9,1.1,3.3,2.8h2.5c-0.6-3.2-2.8-5-5.7-5c-1.7,0-3.1,0.6-4.2,1.7
			c-1.6,1.6-1.6,3.4-1.6,6.5s0,4.9,1.6,6.5c1.1,1.1,2.6,1.7,4.2,1.7c2.9,0,5.2-1.7,5.7-5h-2.5c-0.4,1.6-1.5,2.8-3.3,2.8
			c-1,0-1.8-0.4-2.4-1c-0.8-0.9-1-1.8-1-5s0.2-4.2,1-5C381.8,46.1,382.6,45.8,383.6,45.8z"/>
		<path class="st2" d="M395.6,48.2c-1.6,0-2.7,0.6-3.4,1.4c-1.1,1.1-1.4,2.6-1.4,4.5c0,1.9,0.3,3.4,1.4,4.5c0.7,0.8,1.9,1.4,3.4,1.4
			c1.6,0,2.7-0.6,3.4-1.4c1.1-1.1,1.4-2.6,1.4-4.5c0-1.9-0.3-3.4-1.4-4.5C398.3,48.8,397.2,48.2,395.6,48.2z M397.3,57.2
			c-0.4,0.4-1,0.7-1.7,0.7c-0.7,0-1.2-0.2-1.7-0.7c-0.7-0.7-0.8-1.9-0.8-3.1c0-1.2,0.1-2.4,0.8-3.1c0.4-0.4,1-0.7,1.7-0.7
			c0.7,0,1.3,0.2,1.7,0.7c0.7,0.7,0.8,1.9,0.8,3.1C398.1,55.3,398,56.5,397.3,57.2z"/>
		<path class="st2" d="M408,48.2c-1.2,0-2.3,0.4-3.1,1.3v-1.2h-2.3v11.5h2.3v-7c0-1.8,1.1-2.6,2.4-2.6c1.3,0,2.3,0.8,2.3,2.6v7h2.3
			v-7.3c0-1.3-0.3-2.4-1.2-3.2C410.1,48.6,409.2,48.2,408,48.2z"/>
		<path class="st2" d="M417.2,45.1h-2.3v3.5h-1.3v1.8h1.3v6.3c0,1.7,1,3.2,3.1,3.2h1.4v-2h-1c-0.9,0-1.3-0.5-1.3-1.3v-6.2h2.2v-1.8
			h-2.2V45.1z"/>
		<path class="st2" d="M426.8,48.2c-1.3,0-2.5,0.6-3.1,1.4v-1.2h-2.3v11.5h2.3v-7c0-1.6,1-2.6,2.3-2.6c0.8,0,1.2,0.2,1.7,0.8
			l1.7-1.7C428.7,48.5,427.9,48.2,426.8,48.2z"/>
		<path class="st2" d="M434,48.2c-1.6,0-2.7,0.6-3.4,1.4c-1.1,1.1-1.4,2.6-1.4,4.5c0,1.9,0.3,3.4,1.4,4.5c0.7,0.8,1.9,1.4,3.4,1.4
			c1.6,0,2.7-0.6,3.4-1.4c1.1-1.1,1.4-2.6,1.4-4.5c0-1.9-0.3-3.4-1.4-4.5C436.7,48.8,435.6,48.2,434,48.2z M435.7,57.2
			c-0.4,0.4-1,0.7-1.7,0.7c-0.7,0-1.2-0.2-1.7-0.7c-0.7-0.7-0.8-1.9-0.8-3.1c0-1.2,0.1-2.4,0.8-3.1c0.4-0.4,1-0.7,1.7-0.7
			c0.7,0,1.3,0.2,1.7,0.7c0.7,0.7,0.8,1.9,0.8,3.1C436.5,55.3,436.4,56.5,435.7,57.2z"/>
		<path class="st2" d="M443.3,56.5V43.7H441v12.9c0,1.7,1,3.2,3.1,3.2h1.4v-2h-1C443.6,57.9,443.3,57.4,443.3,56.5z"/>
		<path class="st2" d="M449.4,56.5V43.7h-2.3v12.9c0,1.7,1,3.2,3.1,3.2h1.4v-2h-1C449.7,57.9,449.4,57.4,449.4,56.5z"/>
		<path class="st2" d="M457,48.2c-2.9,0-4.9,2.2-4.9,5.9c0,4.4,2.3,5.9,5.2,5.9c2,0,3.1-0.6,4.3-1.8l-1.5-1.4
			c-0.8,0.8-1.5,1.2-2.8,1.2c-1.9,0-2.9-1.2-2.9-3.2h7.4v-1C461.9,50.5,460.1,48.2,457,48.2z M454.4,53.1c0-0.7,0.1-1,0.3-1.6
			c0.4-0.9,1.2-1.4,2.3-1.4c1.1,0,1.9,0.6,2.3,1.4c0.2,0.5,0.3,0.9,0.3,1.6H454.4z"/>
		<path class="st2" d="M470.6,49.5c-0.8-1-1.8-1.3-3-1.3c-1.2,0-2.2,0.4-2.8,1c-1.2,1.2-1.3,3.1-1.3,4.8c0,1.7,0.1,3.7,1.3,4.9
			c0.6,0.6,1.7,1,2.8,1c1.2,0,2.2-0.3,3-1.4v1.2h2.3V43.7h-2.3V49.5z M468.2,57.9c-2.1,0-2.4-1.8-2.4-3.8c0-2,0.3-3.8,2.4-3.8
			c2.1,0,2.4,1.8,2.4,3.8C470.6,56.1,470.3,57.9,468.2,57.9z"/>
		<polygon class="st2" points="487.6,53.7 482.9,43.7 480.5,43.7 480.5,59.8 482.9,59.8 482.9,49 486.7,56.9 488.5,56.9 492.2,49 
			492.2,59.8 494.7,59.8 494.7,43.7 492.2,43.7 		"/>
		<path class="st2" d="M502,48.2c-2.9,0-4.9,2.2-4.9,5.9c0,4.4,2.3,5.9,5.2,5.9c2,0,3.1-0.6,4.3-1.8l-1.5-1.4
			c-0.8,0.8-1.5,1.2-2.8,1.2c-1.9,0-2.9-1.2-2.9-3.2h7.4v-1C506.8,50.5,505,48.2,502,48.2z M499.4,53.1c0-0.7,0.1-1,0.3-1.6
			c0.4-0.9,1.2-1.4,2.3-1.4c1.1,0,1.9,0.6,2.3,1.4c0.2,0.5,0.3,0.9,0.3,1.6H499.4z"/>
		<path class="st2" d="M515.5,49.5c-0.8-1-1.8-1.3-3-1.3c-1.2,0-2.2,0.4-2.8,1c-1.2,1.2-1.3,3.1-1.3,4.8c0,1.7,0.1,3.7,1.3,4.9
			c0.6,0.6,1.7,1,2.8,1c1.2,0,2.2-0.3,3-1.4v1.2h2.3V43.7h-2.3V49.5z M513.1,57.9c-2.1,0-2.4-1.8-2.4-3.8c0-2,0.3-3.8,2.4-3.8
			s2.4,1.8,2.4,3.8C515.5,56.1,515.2,57.9,513.1,57.9z"/>
		<rect x="520.6" y="48.3" class="st2" width="2.3" height="11.5"/>
		<rect x="520.5" y="43.6" class="st2" width="2.4" height="2.4"/>
		<path class="st2" d="M530.2,50.3c0.9,0,1.5,0.3,2.2,1.1l1.6-1.5c-1.1-1.2-2.2-1.6-3.8-1.6c-2.6,0-5.1,1.6-5.1,5.9
			c0,4.3,2.5,5.9,5.1,5.9c1.6,0,2.7-0.5,3.8-1.6l-1.6-1.5c-0.7,0.8-1.3,1.1-2.2,1.1c-0.9,0-1.6-0.4-2.1-1c-0.5-0.6-0.7-1.5-0.7-2.8
			s0.2-2.2,0.7-2.8C528.6,50.6,529.3,50.3,530.2,50.3z"/>
		<path class="st2" d="M539.4,48.2c-1.9,0-3,0.4-4.1,1.7l1.5,1.4c0.6-0.8,1.2-1.1,2.5-1.1c1.8,0,2.5,0.7,2.5,2.2v0.8h-3
			c-2.6,0-4,1.4-4,3.3c0,1,0.3,1.9,0.9,2.5c0.7,0.7,1.7,1,3.1,1c1.4,0,2.2-0.3,3.1-1.2v1h2.3v-7.7C544.1,49.5,542.5,48.2,539.4,48.2
			z M541.8,55.7c0,0.8-0.2,1.4-0.5,1.7c-0.6,0.6-1.3,0.7-2.2,0.7c-1.4,0-2.1-0.6-2.1-1.6c0-1,0.7-1.7,2.1-1.7h2.7V55.7z"/>
		<path class="st2" d="M549.3,45.1H547v3.5h-1.3v1.8h1.3v6.3c0,1.7,1,3.2,3.1,3.2h1.4v-2h-1c-0.9,0-1.3-0.5-1.3-1.3v-6.2h2.2v-1.8
			h-2.2V45.1z"/>
		<rect x="553.5" y="43.6" class="st2" width="2.4" height="2.4"/>
		<rect x="553.6" y="48.3" class="st2" width="2.3" height="11.5"/>
		<path class="st2" d="M562.9,48.2c-1.6,0-2.7,0.6-3.4,1.4c-1.1,1.1-1.4,2.6-1.4,4.5c0,1.9,0.3,3.4,1.4,4.5c0.7,0.8,1.9,1.4,3.4,1.4
			c1.6,0,2.7-0.6,3.4-1.4c1.1-1.1,1.4-2.6,1.4-4.5c0-1.9-0.3-3.4-1.4-4.5C565.6,48.8,564.4,48.2,562.9,48.2z M564.6,57.2
			c-0.4,0.4-1,0.7-1.7,0.7c-0.7,0-1.2-0.2-1.7-0.7c-0.7-0.7-0.8-1.9-0.8-3.1c0-1.2,0.1-2.4,0.8-3.1c0.4-0.4,1-0.7,1.7-0.7
			c0.7,0,1.3,0.2,1.7,0.7c0.7,0.7,0.8,1.9,0.8,3.1C565.4,55.3,565.3,56.5,564.6,57.2z"/>
		<path class="st2" d="M575.2,48.2c-1.2,0-2.3,0.4-3.1,1.3v-1.2h-2.3v11.5h2.3v-7c0-1.8,1.1-2.6,2.4-2.6c1.3,0,2.3,0.8,2.3,2.6v7
			h2.3v-7.3c0-1.3-0.3-2.4-1.2-3.2C577.4,48.6,576.4,48.2,575.2,48.2z"/>
		<path class="st2" d="M586.9,53.1l-1.8-0.2c-1.2-0.1-1.6-0.6-1.6-1.3c0-0.9,0.7-1.5,2.1-1.5c1.1,0,2.1,0.2,2.8,0.8l1.4-1.5
			c-1.1-0.9-2.5-1.3-4.3-1.3c-2.4,0-4.3,1.3-4.3,3.5c0,2,1.2,3,3.4,3.2l1.8,0.2c1.1,0.1,1.5,0.6,1.5,1.4c0,1.1-1.1,1.6-2.5,1.6
			c-1.1,0-2.4-0.2-3.3-1.2l-1.5,1.5c1.4,1.3,2.9,1.7,4.8,1.7c2.7,0,4.8-1.2,4.8-3.6C590.3,54.3,589.1,53.3,586.9,53.1z"/>
	</g>
</g>
</svg>
