<?xml version="1.0" encoding="utf-8"?>
<!-- Generator: Adobe Illustrator 27.1.1, SVG Export Plug-In . SVG Version: 6.00 Build 0)  -->
<svg version="1.1" id="Layer_1" xmlns="http://www.w3.org/2000/svg" xmlns:xlink="http://www.w3.org/1999/xlink" x="0px" y="0px"
	 viewBox="0 0 180.6 60.6" style="enable-background:new 0 0 180.6 60.6;" xml:space="preserve">
<style type="text/css">
	.st0{fill:url(#Path_5243_00000134219205588402454450000001835674942478988454_);}
	.st1{fill:url(#Path_5244_00000023975788355543150450000014353331294107747254_);}
</style>
<g id="Group_2812" transform="translate(-318.304 -201.876)">
	<g id="Group_2814" transform="translate(421.933 201.876)">
		<g id="Group_2813">
			<g id="Group_2812-2" transform="translate(0.832 28.373)">
				
					<linearGradient id="Path_5243_00000120532612584270460750000009401065335292456377_" gradientUnits="userSpaceOnUse" x1="-1924.7499" y1="32.107" x2="-1923.749" y2="32.107" gradientTransform="matrix(76.131 0 0 32.2085 146483.125 -1017.9986)">
					<stop  offset="0" style="stop-color:#1D9A65"/>
					<stop  offset="0.454" style="stop-color:#17A18E"/>
					<stop  offset="1" style="stop-color:#003E8D"/>
				</linearGradient>
				<path id="Path_5243" style="fill:url(#Path_5243_00000120532612584270460750000009401065335292456377_);" d="M-19.7,32.2
					c-1.9,0-3.7-0.8-5.1-2.1l-9.5-9.5H-50v-8.4h16.2c1.9,0,3.7,0.8,5.1,2.1l9,9L-0.8,2.4C1.8-0.5,6.4-0.8,9.3,1.9
					C9.4,2,9.5,2.1,9.6,2.2l9.5,9.5c1,1,2.3,1.6,3.7,1.5h3.4v8.4h-3.4c-3.6,0-7.1-1.4-9.7-4L4.5,9l-18.9,20.8
					c-1.3,1.5-3.2,2.3-5.1,2.4H-19.7z"/>
			</g>
			
				<linearGradient id="Path_5244_00000024685823275680477240000007487907203562839979_" gradientUnits="userSpaceOnUse" x1="-1920.8419" y1="32.7774" x2="-1919.3209" y2="32.7774" gradientTransform="matrix(68.3231 0 0 31.5396 131168.0312 -1018.0532)">
				<stop  offset="0" style="stop-color:#1D9A65"/>
				<stop  offset="0.454" style="stop-color:#17A18E"/>
				<stop  offset="1" style="stop-color:#003E8D"/>
			</linearGradient>
			<path id="Path_5244" style="fill:url(#Path_5244_00000024685823275680477240000007487907203562839979_);" d="M9.2,18.2h9.1
				C18,9.7,12,2.5,3.8,0.5C0.4-0.3-3.1-0.2-6.4,0.8c-2.9,0.9-5.6,2.5-7.8,4.7c-1.3,1.2-1.9,1.2-3.3,0c-0.1-0.1-0.2-0.2-0.4-0.3
				C-25.4-2-37.5-1.7-44.7,5.9c-4.6,4.8-6.3,11.6-4.6,18c0.8,2.8,2.1,5.4,4,7.6l7.2-5.4c-0.1-0.1-0.2-0.3-0.3-0.4
				c-2.3-2.6-3.1-6.2-2.1-9.6c1.6-5.3,7.2-8.4,12.5-6.8c1.1,0.3,2.1,0.8,3.1,1.5c1.8,1.3,3.6,2.5,5.4,3.7c2.1,1.5,5,1.6,7.2,0.2
				c2.1-1.3,4-2.7,6-4c4.5-3.2,10.8-2,13.9,2.5C8.5,14.7,9.1,16.4,9.2,18.2L9.2,18.2z"/>
		</g>
	</g>
</g>
</svg>
